<?xml version="1.0" standalone="no"?>
<!DOCTYPE svg PUBLIC "-//W3C//DTD SVG 20010904//EN"
 "http://www.w3.org/TR/2001/REC-SVG-20010904/DTD/svg10.dtd">
<svg version="1.0" xmlns="http://www.w3.org/2000/svg"
 width="756.000000pt" height="716.000000pt" viewBox="0 0 756.000000 716.000000"
 preserveAspectRatio="xMidYMid meet">

<g transform="translate(0.000000,716.000000) scale(0.100000,-0.100000)"
fill="#000000" stroke="none">
<path d="M3945 5380 c-33 -4 -82 -15 -110 -25 -40 -15 -95 -20 -275 -25 -221
-7 -389 -20 -523 -41 -133 -21 -161 -87 -159 -374 1 -82 6 -220 11 -305 6 -85
15 -227 21 -316 l11 -161 -66 -64 -66 -64 -10 -150 c-5 -82 -14 -186 -18 -230
-6 -49 -6 -86 0 -97 31 -58 154 -216 230 -295 88 -91 139 -160 178 -243 24
-51 58 -95 185 -241 152 -174 184 -176 436 -28 85 50 232 128 325 174 169 83
171 84 270 185 100 101 152 139 305 217 l75 38 1 200 c1 110 6 220 12 245 6
25 12 83 12 128 l0 84 -59 56 -59 57 -5 260 c-6 294 -6 296 -102 600 -32 99
-68 218 -82 265 -35 118 -47 138 -86 144 -58 9 -390 13 -452 6z m-585 -745 c0
-31 3 -35 25 -35 22 0 25 4 25 35 0 31 3 35 25 35 22 0 25 -4 25 -35 0 -31 3
-35 25 -35 22 0 25 4 25 35 0 31 3 35 25 35 22 0 25 -4 25 -35 0 -31 -3 -35
-25 -35 -22 0 -25 -4 -25 -35 0 -31 3 -35 25 -35 21 0 25 -5 25 -30 0 -25 -4
-30 -25 -30 -21 0 -25 5 -25 30 0 25 -4 30 -25 30 -21 0 -25 -5 -25 -30 0 -25
-4 -30 -25 -30 -21 0 -25 5 -25 30 0 25 -4 30 -25 30 -22 0 -25 4 -25 35 0 31
-3 35 -25 35 -22 0 -25 4 -25 35 0 31 3 35 25 35 22 0 25 -4 25 -35z m710 0
c0 -30 3 -35 24 -35 21 0 25 6 28 33 2 27 7 32 28 32 21 0 26 -5 28 -32 3 -27
7 -33 28 -33 21 0 24 -5 24 -35 0 -31 3 -35 25 -35 21 0 25 -5 25 -30 0 -25
-4 -30 -25 -30 -21 0 -25 5 -25 30 0 25 -4 30 -25 30 -21 0 -25 -5 -25 -30 0
-27 -3 -30 -30 -30 -27 0 -30 3 -30 29 0 23 -5 30 -22 33 -18 2 -24 11 -26 36
-3 26 -7 32 -28 32 -21 0 -24 5 -24 35 0 31 3 35 25 35 22 0 25 -4 25 -35z"/>
<path d="M3410 4565 c0 -31 3 -35 25 -35 22 0 25 4 25 35 0 31 -3 35 -25 35
-22 0 -25 -4 -25 -35z"/>
<path d="M4120 4565 c0 -32 2 -35 30 -35 28 0 30 3 30 35 0 32 -2 35 -30 35
-28 0 -30 -3 -30 -35z"/>
</g>
</svg>
